<svg id="svg2" xmlns="http://www.w3.org/2000/svg" xmlns:xlink="http://www.w3.org/1999/xlink" viewBox="0 0 817.31 223.31"><defs><style>.cls-1{fill:#070303;}.cls-2{fill:#020101;}.cls-3{font-size:121.19px;font-family:Gotham-Bold, Gotham;font-weight:700;}.cls-4{fill:#4fc3f7;}.cls-5{fill:#e1f5fe;}.cls-6{fill:url(#Dégradé_sans_nom_4);}.cls-7{fill:url(#Dégradé_sans_nom_3);}.cls-8{fill:url(#Dégradé_sans_nom_4-2);}.cls-9{fill:#212121;}.cls-10{fill:url(#Dégradé_sans_nom_6);}.cls-11{fill:url(#Dégradé_sans_nom_6-2);}.cls-12{fill:url(#Dégradé_sans_nom_7);}.cls-13{fill:url(#Dégradé_sans_nom_9);}.cls-14{fill:url(#Dégradé_sans_nom_9-2);}</style><radialGradient id="Dégradé_sans_nom_4" cx="102.22" cy="-1137.66" r="65.13" gradientTransform="matrix(1, 0, 0, -0.46, 0, -76.46)" gradientUnits="userSpaceOnUse"><stop offset="0.03"/><stop offset="1" stop-color="#424242"/></radialGradient><radialGradient id="Dégradé_sans_nom_3" cx="54.51" cy="-456.88" r="42.49" gradientTransform="matrix(1, 0.01, 0, -0.68, -1.11, 32.35)" gradientUnits="userSpaceOnUse"><stop offset="0.03"/><stop offset="0.97" stop-color="#424242"/></radialGradient><radialGradient id="Dégradé_sans_nom_4-2" cx="-1161.91" cy="-807.14" r="39.37" gradientTransform="matrix(-1, 0.01, 0, -0.52, -1010.08, -69.74)" xlink:href="#Dégradé_sans_nom_4"/><linearGradient id="Dégradé_sans_nom_6" x1="197.9" y1="-151.08" x2="217.49" y2="-151.08" gradientTransform="matrix(1, 0, 0, -1, 0, 228)" gradientUnits="userSpaceOnUse"><stop offset="0.45" stop-color="#212121"/><stop offset="0.75" stop-color="#323232"/><stop offset="0.97" stop-color="#424242"/></linearGradient><linearGradient id="Dégradé_sans_nom_6-2" x1="-1171.45" y1="-151.08" x2="-1151.87" y2="-151.08" gradientTransform="translate(-1164.79 228) rotate(180)" xlink:href="#Dégradé_sans_nom_6"/><linearGradient id="Dégradé_sans_nom_7" x1="102.26" y1="-90.69" x2="102.26" y2="-160.11" gradientTransform="matrix(1, 0, 0, -1, 0, 228)" gradientUnits="userSpaceOnUse"><stop offset="0.5" stop-color="#fde030"/><stop offset="1" stop-color="#f7c02b"/></linearGradient><radialGradient id="Dégradé_sans_nom_9" cx="280.89" cy="79.56" r="22.16" gradientTransform="matrix(0.96, 0.27, 0.32, -1.14, -204.64, 452.69)" gradientUnits="userSpaceOnUse"><stop offset="0" stop-color="#b36e00"/><stop offset="0.71" stop-color="#c77b00" stop-opacity="0.29"/><stop offset="1" stop-color="#d18100" stop-opacity="0"/></radialGradient><radialGradient id="Dégradé_sans_nom_9-2" cx="-899.49" cy="-203.95" r="22.16" gradientTransform="matrix(-0.96, 0.27, -0.32, -1.14, -818.27, 449.56)" xlink:href="#Dégradé_sans_nom_9"/></defs><g id="g10"><g id="g12"><path id="path14" class="cls-1" d="M170.05,389.6c-36-21.38-95.35-23.34-129.71-12.91a10.45,10.45,0,0,1-6.07-20c39.44-12,105-9.66,146.44,14.94a10.44,10.44,0,0,1-10.66,18Zm-1.17,31.66a8.72,8.72,0,0,1-12,2.86c-30-18.44-75.76-23.78-111.26-13a8.71,8.71,0,0,1-5.06-16.66c40.55-12.3,91-6.34,125.43,14.84a8.72,8.72,0,0,1,2.87,12Zm-13.67,30.4a7,7,0,0,1-9.56,2.32c-26.23-16-59.23-19.65-98.09-10.77a7,7,0,1,1-3.1-13.57c42.53-9.72,79-5.53,108.45,12.45A7,7,0,0,1,155.21,451.66Zm-51.2-161A111.66,111.66,0,0,0-7.64,403.87c.84,60.14,49.93,109.22,110.07,110A111.66,111.66,0,1,0,104,290.61" transform="translate(13.84 -290.61)"/><path id="path16" class="cls-2" d="M296.13,393.69c-19.28-4.6-22.71-7.82-22.71-14.6,0-6.41,6-10.72,15-10.72,8.69,0,17.31,3.27,26.35,10a1.25,1.25,0,0,0,1,.24,1.3,1.3,0,0,0,.84-.52L326,364.83a1.27,1.27,0,0,0-.24-1.72c-10.76-8.63-22.87-12.82-37-12.82-20.81,0-35.35,12.49-35.35,30.36,0,19.17,12.54,26,34.22,31.19,18.44,4.25,21.56,7.81,21.56,14.18,0,7.05-6.3,11.43-16.43,11.43-11.25,0-20.43-3.79-30.7-12.68a1.34,1.34,0,0,0-.93-.3,1.24,1.24,0,0,0-.86.45l-10.56,12.56a1.26,1.26,0,0,0,.13,1.75,62.94,62.94,0,0,0,42.49,16.3c22.43,0,36.93-12.26,36.93-31.23,0-16-9.58-24.9-33.07-30.61" transform="translate(13.84 -290.61)"/><path id="path20" class="cls-2" d="M556.59,439c-12.37,0-21.7-9.95-21.7-23.13s9-22.84,21.42-22.84,21.84,9.94,21.84,23.13S569.08,439,556.59,439Zm0-63.63c-23.26,0-41.49,17.92-41.49,40.79,0,22.63,18.1,40.35,41.21,40.35,23.34,0,41.63-17.85,41.63-40.64s-18.16-40.5-41.35-40.5" transform="translate(13.84 -290.61)"/><path id="path22" class="cls-2" d="M647.62,376.9h-19V357.48a1.26,1.26,0,0,0-1.26-1.27H610.1a1.27,1.27,0,0,0-1.26,1.27V376.9h-8.3a1.25,1.25,0,0,0-1.26,1.26V393a1.27,1.27,0,0,0,1.26,1.27h8.3v38.38c0,15.52,7.72,23.38,22.94,23.38A31.58,31.58,0,0,0,648,452a1.26,1.26,0,0,0,.63-1.1V436.79a1.27,1.27,0,0,0-1.83-1.14,21.66,21.66,0,0,1-10.13,2.45c-5.54,0-8-2.52-8-8.15V394.27h19a1.27,1.27,0,0,0,1.26-1.26V378.16a1.26,1.26,0,0,0-1.26-1.26" transform="translate(13.84 -290.61)"/><path id="path24" class="cls-2" d="M713.8,377v-2.39c0-7,2.69-10.15,8.73-10.15a29.05,29.05,0,0,1,9.72,1.8,1.28,1.28,0,0,0,1.14-.18,1.23,1.23,0,0,0,.52-1V350.49a1.25,1.25,0,0,0-.89-1.21,47.28,47.28,0,0,0-14.35-2.06c-15.94,0-24.37,9-24.37,25.95v3.65H686a1.27,1.27,0,0,0-1.27,1.27V393a1.27,1.27,0,0,0,1.27,1.27h8.29v59.21a1.27,1.27,0,0,0,1.27,1.26h17.25a1.26,1.26,0,0,0,1.27-1.26V394.27H730.2l24.69,59.19c-2.8,6.22-5.56,7.46-9.32,7.46a20,20,0,0,1-9.52-2.7,1.26,1.26,0,0,0-1.75.59l-5.85,12.83a1.27,1.27,0,0,0,.54,1.64A36.46,36.46,0,0,0,747.43,478c12.75,0,19.79-5.94,26-21.92l30-77.38a1.25,1.25,0,0,0-1.17-1.72h-18a1.28,1.28,0,0,0-1.2.84l-18.41,52.59-20.16-52.62a1.26,1.26,0,0,0-1.18-.81H713.8" transform="translate(13.84 -290.61)"/><path id="path26" class="cls-2" d="M675.43,376.9H658.17a1.26,1.26,0,0,0-1.26,1.26v75.32a1.25,1.25,0,0,0,1.26,1.26h17.26a1.26,1.26,0,0,0,1.27-1.26V378.16a1.27,1.27,0,0,0-1.27-1.26" transform="translate(13.84 -290.61)"/><path id="path28" class="cls-2" d="M666.81,342a12.38,12.38,0,1,0,12.38,12.38A12.38,12.38,0,0,0,666.81,342" transform="translate(13.84 -290.61)"/></g><text class="cls-3" transform="translate(336.54 157.9) scale(1.03 1)">hm</text><circle class="cls-4" cx="59.44" cy="88.07" r="44.21"/><circle class="cls-4" cx="172.71" cy="88.07" r="44.21"/><path class="cls-5" d="M25.09,345.28l5.18-4.57,49,55.52L74,400.8Z" transform="translate(13.84 -290.61)"/><path class="cls-5" d="M20.76,349.11l-12,11.2,48.94,55.53,12-11.22Z" transform="translate(13.84 -290.61)"/><path class="cls-5" d="M141.69,345.27l5.19-4.57,49,55.52-5.19,4.57Z" transform="translate(13.84 -290.61)"/><path class="cls-5" d="M137.34,349.11l-12,11.2,48.94,55.53,12-11.22Z" transform="translate(13.84 -290.61)"/><path class="cls-6" d="M165.21,445.76a20.53,20.53,0,0,0-4.05-14.3.68.68,0,0,0-1.23.36c-.14,3.29-1.31,9.94-8.41,12.4C138.1,448.88,131.45,426.16,112,428a14.09,14.09,0,0,0-9.77,5l0,0,0,0a14.05,14.05,0,0,0-9.77-5C73,426.16,66.33,448.88,52.93,444.22c-7.1-2.46-8.28-9.11-8.41-12.4a.68.68,0,0,0-1.23-.36,20.44,20.44,0,0,0-4,14.3c1.26,9.63,10.54,12.48,10.54,12.48a9.7,9.7,0,0,1-8.05,2.83,1.14,1.14,0,0,0-1,1.83c7,9,19.83,11.84,29.2,6a14.9,14.9,0,0,1-2.58,4.93,1.15,1.15,0,0,0,.47,1.77c12,4.83,24.41,2.62,34.4-7.09,10,9.71,22.44,11.92,34.41,7.09a1.16,1.16,0,0,0,.46-1.77,15.31,15.31,0,0,1-2.58-4.93c9.36,5.87,22.22,3,29.21-6a1.14,1.14,0,0,0-1-1.83,9.68,9.68,0,0,1-8-2.83S164,455.39,165.21,445.76Z" transform="translate(13.84 -290.61)"/><path class="cls-7" d="M31.93,317c4.16,2.42,6.26,7.35,6.26,7.35s-5.95-4.41-15.68,2.06c-5.2,3.45-5.39,6.13-11.57,8.36a1,1,0,0,0-.35,1.68,36.38,36.38,0,0,0,11.46,7.08c7.12,2.62,14.38-1.21,21.74-1.44,9.86-.33,22.62,2.46,31.38,7.43A32.13,32.13,0,0,0,62.27,312a1,1,0,0,0-1.4.28,1,1,0,0,0-.16.71l1.54,10.43c-4.43-6.72-11.38-10.76-19.48-10.49A27.6,27.6,0,0,0,32,315.26,1,1,0,0,0,31.93,317Z" transform="translate(13.84 -290.61)"/><path class="cls-8" d="M172.64,317c-4.16,2.42-6.26,7.35-6.26,7.35s6-4.41,15.67,2.06c5.2,3.45,5.39,6.13,11.57,8.36a1,1,0,0,1,.35,1.68,36.27,36.27,0,0,1-11.46,7.08c-7.12,2.62-14.38-1.21-21.73-1.44-9.86-.33-22.63,2.46-31.39,7.43A32.13,32.13,0,0,1,142.29,312a1,1,0,0,1,1.56,1l-1.54,10.43c4.43-6.72,11.38-10.76,19.49-10.49a27.64,27.64,0,0,1,10.82,2.37A1,1,0,0,1,172.64,317Z" transform="translate(13.84 -290.61)"/><path class="cls-9" d="M45.6,344.75a33.93,33.93,0,1,1-33.93,33.93A34,34,0,0,1,45.6,344.75m0-10.28a44.21,44.21,0,1,0,44.21,44.21A44.21,44.21,0,0,0,45.6,334.47Z" transform="translate(13.84 -290.61)"/><path class="cls-9" d="M158.87,344.75a33.93,33.93,0,1,1-33.93,33.93,34,34,0,0,1,33.93-33.93m0-10.28a44.21,44.21,0,1,0,44.21,44.21A44.22,44.22,0,0,0,158.87,334.47Z" transform="translate(13.84 -290.61)"/><path class="cls-10" d="M200.81,393c2-5.6,10.93-8.43,15.25-9.49a3.06,3.06,0,0,0,2.34-3V374.5a3,3,0,0,0-2.9-3c-4.35-.21-12.31-1.31-14.44-6.39C198,357.94,198.21,400.48,200.81,393Z" transform="translate(13.84 -290.61)"/><path class="cls-9" d="M118.44,361s-.66,2.52-4.18,2.52-5.07-2.85-12-2.85-8.53,2.85-12,2.85S86.13,361,86.13,361c-1.08-.66-.48,11.68-.48,11.68.36,1.22,2.42,13.23,3.56,13.38,0,0,4.72-8.29,13.07-8.39,8.34.1,13.08,8.39,13.08,8.39,1.13-.15,3.19-12.16,3.56-13.38C118.92,372.67,119.5,360.33,118.44,361Z" transform="translate(13.84 -290.61)"/><path class="cls-11" d="M3.76,393c-2-5.6-10.94-8.43-15.25-9.49a3.06,3.06,0,0,1-2.35-3V374.5a3,3,0,0,1,2.91-3c4.35-.21,12.3-1.31,14.44-6.39C6.53,357.94,6.36,400.48,3.76,393Z" transform="translate(13.84 -290.61)"/><path class="cls-12" d="M118.78,397.15c-4.46-14.93-6.83-23.76-16.46-23.8h-.11c-9.61,0-12,8.87-16.47,23.8-5.39,17.94-23.39,30.82-14.4,43,3.24,4.35,7.72,4.27,10.46,5s8,13.17,20.41,13.17h.11c12.36,0,17.72-12.46,20.41-13.17s7.22-.62,10.46-5C142.18,428,124.17,415.09,118.78,397.15Z" transform="translate(13.84 -290.61)"/><path class="cls-13" d="M89.29,410.47c3.37-7.14,4.25-19.81,4.25-19.81A141.3,141.3,0,0,0,84,403.4c-1.29,1.89-3.81,5.93-5.29,8.42-5.9,9.95-13.66,19.77-7.34,28.28,3.23,4.35,7.72,4.28,10.45,5,.83.21,1.91,1.52,3.34,3.23,0,0-4.22-7.52-3.34-15.23S85.92,417.61,89.29,410.47Z" transform="translate(13.84 -290.61)"/><path class="cls-14" d="M115.34,410.47c-3.37-7.14-4.26-19.81-4.26-19.81a141.3,141.3,0,0,1,9.53,12.74c1.29,1.89,3.81,5.93,5.3,8.42,5.89,9.95,13.65,19.77,7.33,28.28-3.23,4.35-7.72,4.28-10.45,5-.83.21-1.91,1.52-3.33,3.23,0,0,4.21-7.52,3.33-15.23S118.71,417.61,115.34,410.47Z" transform="translate(13.84 -290.61)"/></g></svg>